<mxfile host="app.diagrams.net" modified="2021-11-05T10:18:45.862Z" agent="5.0 (Windows NT 10.0; Win64; x64) AppleWebKit/537.36 (KHTML, like Gecko) Chrome/95.0.4638.69 Safari/537.36" etag="NfEaAbRXAghPwniRlrgi" version="15.6.8" type="github">
  <diagram id="KSJ3C_OkEg-H4EBqjuEx" name="Page-1">
    <mxGraphModel dx="931" dy="525" grid="1" gridSize="10" guides="1" tooltips="1" connect="1" arrows="1" fold="1" page="1" pageScale="1" pageWidth="827" pageHeight="1169" math="0" shadow="0">
      <root>
        <mxCell id="0" />
        <mxCell id="1" parent="0" />
        <mxCell id="U1sm9fc3ti1wU6GycCgI-48" value="管理员用户" style="shape=umlLifeline;perimeter=lifelinePerimeter;container=1;collapsible=0;recursiveResize=0;rounded=0;shadow=0;strokeWidth=1;" parent="1" vertex="1">
          <mxGeometry x="130" y="490" width="100" height="280" as="geometry" />
        </mxCell>
        <mxCell id="U1sm9fc3ti1wU6GycCgI-49" value="" style="points=[];perimeter=orthogonalPerimeter;rounded=0;shadow=0;strokeWidth=1;" parent="U1sm9fc3ti1wU6GycCgI-48" vertex="1">
          <mxGeometry x="45" y="70" width="10" height="200" as="geometry" />
        </mxCell>
        <mxCell id="U1sm9fc3ti1wU6GycCgI-50" value="UserService" style="shape=umlLifeline;perimeter=lifelinePerimeter;container=1;collapsible=0;recursiveResize=0;rounded=0;shadow=0;strokeWidth=1;" parent="1" vertex="1">
          <mxGeometry x="320" y="490" width="100" height="280" as="geometry" />
        </mxCell>
        <mxCell id="U1sm9fc3ti1wU6GycCgI-52" value="" style="points=[];perimeter=orthogonalPerimeter;rounded=0;shadow=0;strokeWidth=1;" parent="U1sm9fc3ti1wU6GycCgI-50" vertex="1">
          <mxGeometry x="45" y="70" width="10" height="200" as="geometry" />
        </mxCell>
        <mxCell id="U1sm9fc3ti1wU6GycCgI-67" value="" style="endArrow=classic;html=1;rounded=0;edgeStyle=orthogonalEdgeStyle;entryX=0.2;entryY=0.633;entryDx=0;entryDy=0;entryPerimeter=0;" parent="U1sm9fc3ti1wU6GycCgI-50" edge="1">
          <mxGeometry width="50" height="50" relative="1" as="geometry">
            <mxPoint x="43" y="102" as="sourcePoint" />
            <mxPoint x="45" y="116.99000000000001" as="targetPoint" />
            <Array as="points">
              <mxPoint x="18" y="102" />
              <mxPoint x="18" y="118" />
              <mxPoint x="43" y="118" />
              <mxPoint x="43" y="117" />
            </Array>
          </mxGeometry>
        </mxCell>
        <mxCell id="U1sm9fc3ti1wU6GycCgI-69" value="" style="endArrow=classic;html=1;rounded=0;edgeStyle=orthogonalEdgeStyle;entryX=0.2;entryY=0.633;entryDx=0;entryDy=0;entryPerimeter=0;" parent="U1sm9fc3ti1wU6GycCgI-50" edge="1">
          <mxGeometry width="50" height="50" relative="1" as="geometry">
            <mxPoint x="43" y="160" as="sourcePoint" />
            <mxPoint x="45" y="174.99" as="targetPoint" />
            <Array as="points">
              <mxPoint x="18" y="160" />
              <mxPoint x="18" y="176" />
              <mxPoint x="43" y="176" />
              <mxPoint x="43" y="175" />
            </Array>
          </mxGeometry>
        </mxCell>
        <mxCell id="U1sm9fc3ti1wU6GycCgI-56" value="postAddUser" style="verticalAlign=bottom;endArrow=block;shadow=0;strokeWidth=1;exitX=1.1;exitY=0.07;exitDx=0;exitDy=0;exitPerimeter=0;" parent="1" edge="1" source="U1sm9fc3ti1wU6GycCgI-49">
          <mxGeometry relative="1" as="geometry">
            <mxPoint x="196" y="574.04" as="sourcePoint" />
            <mxPoint x="365" y="574.04" as="targetPoint" />
          </mxGeometry>
        </mxCell>
        <mxCell id="U1sm9fc3ti1wU6GycCgI-63" value="用户相关&#xa;数据表" style="shape=umlLifeline;perimeter=lifelinePerimeter;container=1;collapsible=0;recursiveResize=0;rounded=0;shadow=0;strokeWidth=1;" parent="1" vertex="1">
          <mxGeometry x="470" y="490" width="80" height="280" as="geometry" />
        </mxCell>
        <mxCell id="U1sm9fc3ti1wU6GycCgI-65" value="" style="points=[];perimeter=orthogonalPerimeter;rounded=0;shadow=0;strokeWidth=1;" parent="U1sm9fc3ti1wU6GycCgI-63" vertex="1">
          <mxGeometry x="35" y="220" width="10" height="30" as="geometry" />
        </mxCell>
        <mxCell id="U1sm9fc3ti1wU6GycCgI-68" value="&lt;span style=&quot;color: rgb(0, 0, 0); font-family: helvetica; font-size: 11px; font-style: normal; font-weight: 400; letter-spacing: normal; text-align: center; text-indent: 0px; text-transform: none; word-spacing: 0px; background-color: rgb(255, 255, 255); display: inline; float: none;&quot;&gt;校验用户&lt;/span&gt;&lt;br style=&quot;color: rgb(0, 0, 0); font-family: helvetica; font-size: 11px; font-style: normal; font-weight: 400; letter-spacing: normal; text-align: center; text-indent: 0px; text-transform: none; word-spacing: 0px;&quot;&gt;&lt;span style=&quot;color: rgb(0, 0, 0); font-family: helvetica; font-size: 11px; font-style: normal; font-weight: 400; letter-spacing: normal; text-align: center; text-indent: 0px; text-transform: none; word-spacing: 0px; background-color: rgb(255, 255, 255); display: inline; float: none;&quot;&gt;登录状态&lt;/span&gt;" style="text;whiteSpace=wrap;html=1;" parent="1" vertex="1">
          <mxGeometry x="280" y="580" width="70" height="40" as="geometry" />
        </mxCell>
        <mxCell id="U1sm9fc3ti1wU6GycCgI-70" value="Result.fail()" style="html=1;verticalAlign=bottom;endArrow=open;dashed=1;endSize=8;rounded=0;entryX=1.2;entryY=0.385;entryDx=0;entryDy=0;entryPerimeter=0;" parent="1" source="U1sm9fc3ti1wU6GycCgI-52" target="U1sm9fc3ti1wU6GycCgI-49" edge="1">
          <mxGeometry relative="1" as="geometry">
            <mxPoint x="350" y="620" as="sourcePoint" />
            <mxPoint x="190" y="633" as="targetPoint" />
          </mxGeometry>
        </mxCell>
        <mxCell id="U1sm9fc3ti1wU6GycCgI-71" value="&lt;span style=&quot;color: rgb(0 , 0 , 0) ; font-size: 11px ; font-style: normal ; font-weight: 400 ; letter-spacing: normal ; text-indent: 0px ; text-transform: none ; word-spacing: 0px ; font-family: &amp;#34;helvetica&amp;#34; ; text-align: center ; background-color: rgb(255 , 255 , 255) ; display: inline ; float: none&quot;&gt;校验用户&lt;/span&gt;&lt;br style=&quot;color: rgb(0 , 0 , 0) ; font-size: 11px ; font-style: normal ; font-weight: 400 ; letter-spacing: normal ; text-indent: 0px ; text-transform: none ; word-spacing: 0px ; background-color: rgb(248 , 249 , 250) ; font-family: &amp;#34;helvetica&amp;#34; ; text-align: center&quot;&gt;&lt;div style=&quot;text-align: center&quot;&gt;&lt;font face=&quot;helvetica&quot;&gt;&lt;span style=&quot;font-size: 11px ; background-color: rgb(255 , 255 , 255)&quot;&gt;身份&lt;/span&gt;&lt;/font&gt;&lt;/div&gt;" style="text;whiteSpace=wrap;html=1;" parent="1" vertex="1">
          <mxGeometry x="280" y="640" width="70" height="40" as="geometry" />
        </mxCell>
        <mxCell id="U1sm9fc3ti1wU6GycCgI-72" value="Result.fail()" style="html=1;verticalAlign=bottom;endArrow=open;dashed=1;endSize=8;rounded=0;entryX=1.1;entryY=0.69;entryDx=0;entryDy=0;entryPerimeter=0;" parent="1" source="U1sm9fc3ti1wU6GycCgI-52" target="U1sm9fc3ti1wU6GycCgI-49" edge="1">
          <mxGeometry relative="1" as="geometry">
            <mxPoint x="374" y="642.96" as="sourcePoint" />
            <mxPoint x="200" y="703" as="targetPoint" />
          </mxGeometry>
        </mxCell>
        <mxCell id="U1sm9fc3ti1wU6GycCgI-81" value="selectAllByCondition" style="html=1;verticalAlign=bottom;endArrow=block;rounded=0;exitX=0.9;exitY=0.75;exitDx=0;exitDy=0;exitPerimeter=0;" parent="1" source="U1sm9fc3ti1wU6GycCgI-52" target="U1sm9fc3ti1wU6GycCgI-65" edge="1">
          <mxGeometry width="80" relative="1" as="geometry">
            <mxPoint x="390" y="710" as="sourcePoint" />
            <mxPoint x="470" y="710" as="targetPoint" />
          </mxGeometry>
        </mxCell>
        <mxCell id="U1sm9fc3ti1wU6GycCgI-82" value="return userInfos" style="html=1;verticalAlign=bottom;endArrow=open;dashed=1;endSize=8;rounded=0;exitX=0.1;exitY=0.933;exitDx=0;exitDy=0;exitPerimeter=0;entryX=0.9;entryY=0.89;entryDx=0;entryDy=0;entryPerimeter=0;" parent="1" source="U1sm9fc3ti1wU6GycCgI-65" target="U1sm9fc3ti1wU6GycCgI-52" edge="1">
          <mxGeometry relative="1" as="geometry">
            <mxPoint x="460" y="730" as="sourcePoint" />
            <mxPoint x="370" y="737" as="targetPoint" />
          </mxGeometry>
        </mxCell>
        <mxCell id="U1sm9fc3ti1wU6GycCgI-83" value="return Result.success(userInfos)" style="html=1;verticalAlign=bottom;endArrow=open;dashed=1;endSize=8;rounded=0;exitX=-0.2;exitY=0.92;exitDx=0;exitDy=0;exitPerimeter=0;entryX=1.1;entryY=0.92;entryDx=0;entryDy=0;entryPerimeter=0;" parent="1" source="U1sm9fc3ti1wU6GycCgI-52" target="U1sm9fc3ti1wU6GycCgI-49" edge="1">
          <mxGeometry relative="1" as="geometry">
            <mxPoint x="332" y="740" as="sourcePoint" />
            <mxPoint x="190" y="744" as="targetPoint" />
          </mxGeometry>
        </mxCell>
      </root>
    </mxGraphModel>
  </diagram>
</mxfile>
